<svg width="1898" height="121" viewBox="0 0 1898 121" fill="none" xmlns="http://www.w3.org/2000/svg">
<g clip-path="url(#clip0_1_1463)">
<path d="M87.5708 8.80929C96.3356 13.8208 103.178 20.8215 108.099 29.8112C113.019 38.801 115.48 49.0307 115.48 60.5004C115.48 71.97 113.019 82.1998 108.099 91.1895C103.178 100.179 96.3356 107.18 87.5708 112.191C78.806 117.203 68.8368 119.709 57.663 119.709C46.4892 119.709 36.5455 117.203 27.832 112.191C19.1185 107.18 12.3014 100.179 7.38086 91.1895C2.46029 82.1998 0 71.97 0 60.5004C0 49.0307 2.46029 38.801 7.38086 29.8112C12.3014 20.8215 19.1185 13.8208 27.832 8.80929C36.5455 3.79776 46.4892 1.29199 57.663 1.29199C68.8368 1.29199 78.806 3.79776 87.5708 8.80929ZM77.6528 97.0794C83.3934 93.6695 87.8271 88.8129 90.9537 82.5098C94.0803 76.2066 95.6436 68.8701 95.6436 60.5004C95.6436 52.1306 94.0803 44.7941 90.9537 38.491C87.8271 32.1878 83.3934 27.3054 77.6528 23.8439C71.9121 20.3823 65.2488 18.6515 57.663 18.6515C50.0771 18.6515 43.4394 20.3823 37.75 23.8439C32.0606 27.3054 27.6526 32.1878 24.526 38.491C21.3994 44.7941 19.8361 52.1306 19.8361 60.5004C19.8361 68.8701 21.3994 76.2066 24.526 82.5098C27.6526 88.8129 32.0606 93.6695 37.75 97.0794C43.4394 100.489 50.0771 102.194 57.663 102.194C65.2488 102.194 71.9121 100.489 77.6528 97.0794Z" fill="#828282"/>
<path d="M152.384 98.1643C156.587 101.161 160.892 102.659 165.3 102.659C172.271 102.659 177.525 101.187 181.062 98.2418C184.598 95.2969 186.367 91.2928 186.367 86.2297C186.367 83.1297 185.393 80.4948 183.445 78.3249C181.497 76.1549 179.063 74.3725 176.141 72.9775C173.22 71.5826 169.145 69.9551 163.917 68.0952C156.741 65.5119 150.872 63.0061 146.31 60.5779C141.748 58.1496 137.853 54.688 134.624 50.1931C131.395 45.6983 129.78 39.8859 129.78 32.7561C129.78 26.3496 131.369 20.7698 134.547 16.0166C137.725 11.2634 142.133 7.62098 147.771 5.08939C153.409 2.55779 159.867 1.29199 167.146 1.29199C174.424 1.29199 181.959 3.56526 188.827 8.1118C195.695 12.6583 200.821 19.5298 204.204 28.7262L186.674 35.0811C184.419 29.1912 181.6 24.9547 178.217 22.3714C174.834 19.7881 171.246 18.4449 167.453 18.3415C161.918 18.3415 157.561 19.6848 154.383 22.3714C151.205 25.058 149.616 28.5196 149.616 32.7561C149.616 35.856 150.616 38.5168 152.615 40.7384C154.614 42.96 157.1 44.7941 160.072 46.2408C163.045 47.6874 167.146 49.444 172.374 51.5106C179.447 54.3005 185.239 56.9096 189.75 59.3379C194.26 61.7662 198.104 65.2019 201.282 69.6451C204.46 74.0883 206.049 79.6682 206.049 86.3846C206.049 93.1011 204.409 98.681 201.128 103.744C197.848 108.807 193.158 112.734 187.059 115.524C180.959 118.314 173.809 119.709 165.608 119.709C157.407 119.709 149.385 117.41 142.466 112.811C135.546 108.213 129.626 101.626 124.706 93.0495L140.851 83.7497C144.337 90.3629 148.181 95.1677 152.384 98.1643Z" fill="#828282"/>
<path d="M321.375 118.468H300.309L289.391 88.0889H244.952L233.573 118.468H212.507L255.408 2.53125H279.396L321.375 118.468ZM283.087 70.8844L267.402 27.4856L251.257 70.8844H283.087Z" fill="#828282"/>
<path d="M382.574 54.1455L428.705 118.469H404.102L368.889 69.4901L354.742 85.2997V118.469H334.906V2.68694H354.742V55.5405L401.488 2.37695H427.936L382.574 54.1455Z" fill="#828282"/>
<path d="M546.491 118.468H525.425L514.507 88.0889H470.068L458.69 118.468H437.623L480.525 2.53125H504.512L546.491 118.468ZM508.203 70.8844L492.519 27.4856L476.373 70.8844H508.203Z" fill="#828282"/>
<path d="M674.272 19.7358H643.057V118.468H623.067V19.7358H591.545V2.53125H674.272V19.7358Z" stroke="#828282" stroke-miterlimit="10"/>
<path d="M759.998 8.80929C768.763 13.8208 775.605 20.8215 780.526 29.8112C785.446 38.801 787.907 49.0307 787.907 60.5004C787.907 71.97 785.446 82.1998 780.526 91.1895C775.605 100.179 768.763 107.18 759.998 112.191C751.233 117.203 741.264 119.709 730.09 119.709C718.916 119.709 708.972 117.203 700.259 112.191C691.545 107.18 684.728 100.179 679.808 91.1895C674.887 82.1998 672.427 71.97 672.427 60.5004C672.427 49.0307 674.887 38.801 679.808 29.8112C684.728 20.8215 691.545 13.8208 700.259 8.80929C708.972 3.79776 718.916 1.29199 730.09 1.29199C741.264 1.29199 751.233 3.79776 759.998 8.80929ZM750.08 97.0794C755.82 93.6695 760.254 88.8129 763.381 82.5098C766.507 76.2066 768.071 68.8701 768.071 60.5004C768.071 52.1306 766.507 44.7941 763.381 38.491C760.254 32.1878 755.82 27.3054 750.08 23.8439C744.339 20.3823 737.676 18.6515 730.09 18.6515C722.504 18.6515 715.866 20.3823 710.177 23.8439C704.488 27.3054 700.08 32.1878 696.953 38.491C693.826 44.7941 692.263 52.1306 692.263 60.5004C692.263 68.8701 693.826 76.2066 696.953 82.5098C700.08 88.8129 704.488 93.6695 710.177 97.0794C715.866 100.489 722.504 102.194 730.09 102.194C737.676 102.194 744.339 100.489 750.08 97.0794Z" stroke="#828282" stroke-miterlimit="10"/>
<path d="M849.721 54.1455L895.852 118.469H871.249L836.036 69.4901L821.889 85.2997V118.469H802.053V2.68694H821.889V55.5405L868.635 2.37695H895.083L849.721 54.1455Z" stroke="#828282" stroke-miterlimit="10"/>
<path d="M961.972 73.2093V118.468H942.136V73.2093L901.695 2.53125H924.606L952.131 51.5099L979.501 2.53125H1002.57L961.972 73.2093Z" stroke="#828282" stroke-miterlimit="10"/>
<path d="M1085.68 8.80929C1094.44 13.8208 1101.29 20.8215 1106.21 29.8112C1111.13 38.801 1113.59 49.0307 1113.59 60.5004C1113.59 71.97 1111.13 82.1998 1106.21 91.1895C1101.29 100.179 1094.44 107.18 1085.68 112.191C1076.91 117.203 1066.94 119.709 1055.77 119.709C1044.6 119.709 1034.65 117.203 1025.94 112.191C1017.23 107.18 1010.41 100.179 1005.49 91.1895C1000.57 82.1998 998.107 71.97 998.107 60.5004C998.107 49.0307 1000.57 38.801 1005.49 29.8112C1010.41 20.8215 1017.23 13.8208 1025.94 8.80929C1034.65 3.79776 1044.6 1.29199 1055.77 1.29199C1066.94 1.29199 1076.91 3.79776 1085.68 8.80929ZM1075.76 97.0794C1081.5 93.6695 1085.93 88.8129 1089.06 82.5098C1092.19 76.2066 1093.75 68.8701 1093.75 60.5004C1093.75 52.1306 1092.19 44.7941 1089.06 38.491C1085.93 32.1878 1081.5 27.3054 1075.76 23.8439C1070.02 20.3823 1063.36 18.6515 1055.77 18.6515C1048.18 18.6515 1041.55 20.3823 1035.86 23.8439C1030.17 27.3054 1025.76 32.1878 1022.63 38.491C1019.51 44.7941 1017.94 52.1306 1017.94 60.5004C1017.94 68.8701 1019.51 76.2066 1022.63 82.5098C1025.76 88.8129 1030.17 93.6695 1035.86 97.0794C1041.55 100.489 1048.18 102.194 1055.77 102.194C1063.36 102.194 1070.02 100.489 1075.76 97.0794Z" stroke="#828282" stroke-miterlimit="10"/>
<path d="M1257.67 118.468H1235.52L1182.78 36.1653V118.468H1162.95V2.53125H1184.94L1237.68 84.679V2.53125H1257.67V118.468Z" fill="#828282"/>
<path d="M1368.07 118.468H1348.24V67.4745H1297.95V118.468H1278.12V2.53125H1297.95V50.2699H1348.24V2.53125H1368.07V118.468Z" fill="#828282"/>
<path d="M1491.09 118.468H1470.02L1459.1 88.0889H1414.66L1403.29 118.468H1382.22L1425.12 2.53125H1449.11L1491.09 118.468ZM1452.8 70.8844L1437.11 27.4856L1420.97 70.8844H1452.8Z" fill="#828282"/>
<path d="M1618.87 19.7358H1587.65V118.468H1567.66V19.7358H1536.14V2.53125H1618.87V19.7358Z" fill="#828282"/>
<path d="M1697.6 118.468L1670.69 77.7042H1653.31V118.468H1633.48V2.53125H1680.22C1687.3 2.53125 1693.52 4.08121 1698.9 7.18112C1704.29 10.281 1708.46 14.6467 1711.44 20.2783C1714.41 25.9098 1715.9 32.4971 1715.9 40.0402C1715.9 47.5833 1714.08 54.2223 1710.44 59.9572C1706.8 65.692 1700.78 70.5227 1692.37 74.4493L1721.43 118.468H1697.6ZM1690.83 55.0748C1694.32 51.4582 1696.06 46.4467 1696.06 40.0402C1696.06 33.6337 1694.32 28.648 1690.83 25.0831C1687.35 21.5182 1682.63 19.7358 1676.69 19.7358H1653.31V60.4997H1676.69C1682.63 60.4997 1687.35 58.6914 1690.83 55.0748Z" fill="#828282"/>
<path d="M1841.68 118.468H1820.61L1809.69 88.0889H1765.26L1753.88 118.468H1732.81L1775.71 2.53125H1799.7L1841.68 118.468ZM1803.39 70.8844L1787.71 27.4856L1771.56 70.8844H1803.39Z" fill="#828282"/>
<path d="M1949.62 118.468H1927.48L1874.74 36.1653V118.468H1854.9V2.53125H1876.89L1929.63 84.679V2.53125H1949.62V118.468Z" fill="#828282"/>
</g>
<defs>
<clipPath id="clip0_1_1463">
<rect width="7707" height="121" fill="white"/>
</clipPath>
</defs>
</svg>
