<svg width="1920" height="122" viewBox="0 0 1920 122" fill="none" xmlns="http://www.w3.org/2000/svg">
<g clip-path="url(#clip0_1_1397)">
<path d="M61.4311 19.8994H4.85153V50.5297H53.2824V67.8764H4.85153V101.945H61.4311V119.448H-14.9821V2.55273H61.4311V19.8994Z" stroke="#828282" stroke-miterlimit="10"/>
<path d="M140.535 102.335C137.306 108.013 132.822 112.467 127.082 115.697C121.342 118.927 114.782 120.542 107.402 120.542C100.022 120.542 93.2315 118.458 86.7228 114.291C80.2141 110.123 75.5248 104.81 72.6548 98.3504L90.3359 89.5989C92.0784 93.4537 94.5896 96.6313 97.8696 99.1317C101.15 101.632 104.43 102.882 107.709 102.882C112.937 102.882 117.191 101.007 120.471 97.2564C123.751 93.5058 125.391 88.6612 125.391 82.7227V2.55273H145.378V82.879C145.378 90.1719 143.764 96.6574 140.535 102.335Z" stroke="#828282" stroke-miterlimit="10"/>
<path d="M185.327 114.447C178.562 110.384 173.386 104.758 169.798 97.569C166.211 90.3802 164.417 82.0976 164.417 72.721V2.55273H184.251V72.5647C184.251 81.6288 186.352 88.7654 190.554 93.9746C194.757 99.1838 201.009 101.788 209.312 101.788C217.614 101.788 223.892 99.1838 228.146 93.9746C232.4 88.7654 234.527 81.6288 234.527 72.5647V2.55273H254.36V72.721C254.36 82.0976 252.566 90.3802 248.979 97.569C245.391 104.758 240.19 110.384 233.373 114.447C226.557 118.51 218.537 120.542 209.312 120.542C200.087 120.542 192.092 118.51 185.327 114.447Z" stroke="#828282" stroke-miterlimit="10"/>
<path d="M331.542 98.9757C335.744 101.997 340.049 103.508 344.457 103.508C351.427 103.508 356.68 102.023 360.216 99.0538C363.752 96.0845 365.52 92.0474 365.52 86.9424C365.52 83.8168 364.547 81.1601 362.599 78.9723C360.652 76.7844 358.217 74.9872 355.296 73.5807C352.375 72.1742 348.301 70.5333 343.073 68.658C335.898 66.0534 330.03 63.5269 325.469 61.0786C320.908 58.6302 317.013 55.1401 313.784 50.608C310.555 46.076 308.941 40.2156 308.941 33.0269C308.941 26.5675 310.53 20.9415 313.707 16.149C316.885 11.3565 321.292 7.68403 326.93 5.13151C332.567 2.57899 339.024 1.30273 346.302 1.30273C353.579 1.30273 361.113 3.59479 367.98 8.17891C374.848 12.763 379.973 19.6913 383.355 28.9637L365.828 35.3711C363.573 29.4325 360.754 25.161 357.372 22.5564C353.989 19.9518 350.402 18.5974 346.609 18.4932C341.074 18.4932 336.718 19.8476 333.541 22.5564C330.363 25.2652 328.775 28.7553 328.775 33.0269C328.775 36.1524 329.774 38.8352 331.773 41.0752C333.771 43.3151 336.257 45.1644 339.229 46.623C342.202 48.0816 346.302 49.8527 351.529 51.9364C358.602 54.7494 364.393 57.38 368.903 59.8284C373.413 62.2767 377.257 65.7408 380.434 70.2208C383.612 74.7007 385.2 80.3266 385.2 87.0986C385.2 93.8706 383.56 99.4966 380.28 104.602C377 109.707 372.311 113.666 366.212 116.479C360.114 119.292 352.964 120.698 344.764 120.698C336.564 120.698 328.544 118.38 321.625 113.744C314.707 109.108 308.787 102.466 303.867 93.8185L320.011 84.4419C323.496 91.1097 327.34 95.9543 331.542 98.9757Z" fill="#828282"/>
<path d="M478.987 19.8994H422.408V50.5297H470.838V67.8764H422.408V101.945H478.987V119.448H402.574V2.55273H478.987V19.8994Z" fill="#828282"/>
<path d="M578.539 8.88215C587.303 13.9351 594.145 20.9936 599.065 30.0576C603.985 39.1217 606.445 49.436 606.445 61.0004C606.445 72.5649 603.985 82.8792 599.065 91.9432C594.145 101.007 587.303 108.066 578.539 113.119C569.776 118.172 559.808 120.698 548.635 120.698C537.463 120.698 527.52 118.172 518.808 113.119C510.096 108.066 503.279 101.007 498.359 91.9432C493.439 82.8792 490.979 72.5649 490.979 61.0004C490.979 49.436 493.439 39.1217 498.359 30.0576C503.279 20.9936 510.096 13.9351 518.808 8.88215C527.52 3.82921 537.463 1.30273 548.635 1.30273C559.808 1.30273 569.776 3.82921 578.539 8.88215ZM568.622 97.8817C574.362 94.4436 578.796 89.547 581.922 83.1917C585.048 76.8365 586.611 69.4394 586.611 61.0004C586.611 52.5615 585.048 45.1644 581.922 38.8091C578.796 32.4539 574.362 27.5312 568.622 24.041C562.883 20.5508 556.22 18.8057 548.635 18.8057C541.05 18.8057 534.413 20.5508 528.725 24.041C523.036 27.5312 518.629 32.4539 515.502 38.8091C512.376 45.1644 510.813 52.5615 510.813 61.0004C510.813 69.4394 512.376 76.8365 515.502 83.1917C518.629 89.547 523.036 94.4436 528.725 97.8817C534.413 101.32 541.05 103.039 548.635 103.039C556.22 103.039 562.883 101.32 568.622 97.8817Z" fill="#828282"/>
<path d="M641.192 114.447C634.427 110.384 629.251 104.758 625.663 97.569C622.076 90.3802 620.282 82.0976 620.282 72.721V2.55273H640.116V72.5647C640.116 81.6288 642.217 88.7654 646.419 93.9746C650.622 99.1838 656.874 101.788 665.177 101.788C673.479 101.788 679.757 99.1838 684.011 93.9746C688.265 88.7654 690.392 81.6288 690.392 72.5647V2.55273H710.225V72.721C710.225 82.0976 708.431 90.3802 704.844 97.569C701.256 104.758 696.055 110.384 689.238 114.447C682.422 118.51 674.402 120.542 665.177 120.542C655.952 120.542 647.957 118.51 641.192 114.447Z" fill="#828282"/>
<path d="M748.662 101.945H798.938V119.448H728.829V2.55273H748.662V101.945Z" fill="#828282"/>
<path d="M846.6 2.55273H887.19C893.237 2.55273 898.67 3.90713 903.487 6.61593C908.305 9.32472 912.046 13.0754 914.711 17.8678C917.376 22.6603 918.708 28.13 918.708 34.2769C918.708 37.8192 917.888 41.5177 916.248 45.3725C914.608 49.2274 912.405 52.6134 909.637 55.5305C911.687 56.7807 913.122 57.7184 913.942 58.3435C918.144 61.1565 921.604 65.1155 924.32 70.2205C927.036 75.3256 928.394 80.4827 928.394 85.6919C928.394 92.1514 927.062 97.9597 924.397 103.117C921.732 108.274 917.991 112.285 913.173 115.15C908.356 118.015 902.923 119.448 896.876 119.448H846.6V2.55273ZM895.415 46.3883C897.824 43.7316 899.028 40.2154 899.028 35.8397C899.028 30.943 897.747 27.0621 895.185 24.1971C892.622 21.332 889.137 19.8994 884.73 19.8994H866.434V50.686H885.806C889.803 50.4776 893.007 49.045 895.415 46.3883ZM904.64 97.4908C907.356 94.5216 908.715 90.5886 908.715 85.6919C908.715 80.3785 907.356 76.107 904.64 72.8772C901.924 69.6475 898.311 68.0327 893.801 68.0327H866.434V101.945H893.801C898.311 101.945 901.924 100.46 904.64 97.4908Z" stroke="#828282" stroke-miterlimit="10"/>
<path d="M963.142 114.447C956.377 110.384 951.201 104.758 947.613 97.569C944.026 90.3802 942.232 82.0976 942.232 72.721V2.55273H962.065V72.5647C962.065 81.6288 964.167 88.7654 968.369 93.9746C972.572 99.1838 978.824 101.788 987.126 101.788C995.429 101.788 1001.71 99.1838 1005.96 93.9746C1010.21 88.7654 1012.34 81.6288 1012.34 72.5647V2.55273H1032.17V72.721C1032.17 82.0976 1030.38 90.3802 1026.79 97.569C1023.21 104.758 1018 110.384 1011.19 114.447C1004.37 118.51 996.351 120.542 987.126 120.542C977.901 120.542 969.907 118.51 963.142 114.447Z" stroke="#828282" stroke-miterlimit="10"/>
<path d="M1073.23 98.9757C1077.43 101.997 1081.73 103.508 1086.14 103.508C1093.11 103.508 1098.36 102.023 1101.9 99.0538C1105.44 96.0845 1107.2 92.0474 1107.2 86.9424C1107.2 83.8168 1106.23 81.1601 1104.28 78.9723C1102.34 76.7844 1099.9 74.9872 1096.98 73.5807C1094.06 72.1742 1089.98 70.5333 1084.76 68.658C1077.58 66.0534 1071.71 63.5269 1067.15 61.0786C1062.59 58.6302 1058.7 55.1401 1055.47 50.608C1052.24 46.076 1050.62 40.2156 1050.62 33.0269C1050.62 26.5675 1052.21 20.9415 1055.39 16.149C1058.57 11.3565 1062.98 7.68403 1068.61 5.13151C1074.25 2.57899 1080.71 1.30273 1087.99 1.30273C1095.26 1.30273 1102.8 3.59479 1109.66 8.17891C1116.53 12.763 1121.66 19.6913 1125.04 28.9637L1107.51 35.3711C1105.26 29.4325 1102.44 25.161 1099.06 22.5564C1095.67 19.9518 1092.09 18.5974 1088.29 18.4932C1082.76 18.4932 1078.4 19.8476 1075.22 22.5564C1072.05 25.2652 1070.46 28.7553 1070.46 33.0269C1070.46 36.1524 1071.46 38.8352 1073.46 41.0752C1075.45 43.3151 1077.94 45.1644 1080.91 46.623C1083.89 48.0816 1087.99 49.8527 1093.21 51.9364C1100.29 54.7494 1106.08 57.38 1110.59 59.8284C1115.1 62.2767 1118.94 65.7408 1122.12 70.2208C1125.3 74.7007 1126.88 80.3266 1126.88 87.0986C1126.88 93.8706 1125.24 99.4966 1121.96 104.602C1118.68 109.707 1113.99 113.666 1107.9 116.479C1101.8 119.292 1094.65 120.698 1086.45 120.698C1078.25 120.698 1070.23 118.38 1063.31 113.744C1056.39 109.108 1050.47 102.466 1045.55 93.8185L1061.69 84.4419C1065.18 91.1097 1069.02 95.9543 1073.23 98.9757Z" stroke="#828282" stroke-miterlimit="10"/>
<path d="M1242.2 119.448H1221.13L1210.22 88.8175H1165.78L1154.41 119.448H1133.34L1176.24 2.55273H1200.22L1242.2 119.448ZM1203.91 71.4708L1188.23 27.7133L1172.09 71.4708H1203.91Z" stroke="#828282" stroke-miterlimit="10"/>
<path d="M1350.13 119.448H1327.99L1275.25 36.4648V119.448H1255.42V2.55273H1277.4L1330.14 85.3794V2.55273H1350.13V119.448Z" stroke="#828282" stroke-miterlimit="10"/>
<path d="M1511.1 68.3454C1511.1 78.9722 1508.9 88.1925 1504.49 96.0064C1500.08 103.82 1493.81 109.863 1485.66 114.134C1477.51 118.406 1468 120.594 1457.14 120.698C1445.96 120.698 1436.02 118.172 1427.31 113.119C1418.6 108.066 1411.78 101.007 1406.86 91.9432C1401.94 82.8791 1399.48 72.5649 1399.48 61.0004C1399.48 49.4359 1401.94 39.1477 1406.86 30.1358C1411.78 21.1238 1418.6 14.0913 1427.31 9.0384C1436.02 3.98546 1445.96 1.45898 1457.14 1.45898C1468.31 1.45898 1476.92 3.54267 1484.2 7.71005C1491.47 11.8774 1496.6 15.9667 1499.57 19.9778C1502.54 23.9889 1504.8 27.1925 1506.34 29.5888L1489.58 38.8091C1488.55 37.1422 1487.04 34.8761 1485.04 32.0111C1483.04 29.146 1479.63 26.2549 1474.82 23.3377C1470 20.4206 1464.11 18.962 1457.14 18.962C1449.55 18.962 1442.91 20.681 1437.23 24.1191C1431.54 27.5572 1427.13 32.4539 1424 38.8091C1420.88 45.1644 1419.31 52.5615 1419.31 61.0004C1419.31 69.4393 1420.88 76.8364 1424 83.1917C1427.13 89.5469 1431.54 94.4436 1437.23 97.8817C1442.91 101.32 1449.55 103.039 1457.14 103.039C1466.98 102.83 1475.12 100.33 1481.58 95.5375C1488.04 90.7451 1491.32 83.5042 1491.42 73.8151H1458.83V57.5623H1511.1V68.3454Z" fill="#828282"/>
<path d="M1621.19 119.448H1600.12L1589.21 88.8175H1544.77L1533.4 119.448H1512.33L1555.23 2.55273H1579.21L1621.19 119.448ZM1582.9 71.4708L1567.22 27.7133L1551.08 71.4708H1582.9Z" fill="#828282"/>
<path d="M1729.12 119.448H1706.98L1654.24 36.4648V119.448H1634.41V2.55273H1656.39L1709.13 85.3794V2.55273H1729.12V119.448Z" fill="#828282"/>
<path d="M1855.5 68.3454C1855.5 78.9722 1853.3 88.1925 1848.89 96.0064C1844.48 103.82 1838.2 109.863 1830.05 114.134C1821.91 118.406 1812.4 120.594 1801.53 120.698C1790.36 120.698 1780.42 118.172 1771.71 113.119C1762.99 108.066 1756.18 101.007 1751.26 91.9432C1746.34 82.8791 1743.88 72.5649 1743.88 61.0004C1743.88 49.4359 1746.34 39.1477 1751.26 30.1358C1756.18 21.1238 1762.99 14.0913 1771.71 9.0384C1780.42 3.98546 1790.36 1.45898 1801.53 1.45898C1812.71 1.45898 1821.32 3.54267 1828.59 7.71005C1835.87 11.8774 1841 15.9667 1843.97 19.9778C1846.94 23.9889 1849.2 27.1925 1850.73 29.5888L1833.97 38.8091C1832.95 37.1422 1831.44 34.8761 1829.44 32.0111C1827.44 29.146 1824.03 26.2549 1819.21 23.3377C1814.4 20.4206 1808.5 18.962 1801.53 18.962C1793.95 18.962 1787.31 20.681 1781.62 24.1191C1775.93 27.5572 1771.53 32.4539 1768.4 38.8091C1765.27 45.1644 1763.71 52.5615 1763.71 61.0004C1763.71 69.4393 1765.27 76.8364 1768.4 83.1917C1771.53 89.5469 1775.93 94.4436 1781.62 97.8817C1787.31 101.32 1793.95 103.039 1801.53 103.039C1811.37 102.83 1819.52 100.33 1825.98 95.5375C1832.44 90.7451 1835.72 83.5042 1835.82 73.8151H1803.22V57.5623H1855.5V68.3454Z" fill="#828282"/>
<path d="M1965.12 119.448H1942.98L1890.25 36.4648V119.448H1870.41V2.55273H1892.4L1945.13 85.3794V2.55273H1965.12V119.448Z" fill="#828282"/>
</g>
<defs>
<clipPath id="clip0_1_1397">
<rect width="7202" height="122" fill="white" transform="translate(-108)"/>
</clipPath>
</defs>
</svg>
